HIERARCHY
ROOT hip
{
	OFFSET 0.000000 0.000000 0.000000 
	CHANNELS 6 Xposition Yposition Zposition Xrotation Zrotation Yrotation
	JOINT abdomen
	{
		OFFSET 0.000000 3.402643 0.000000 
		CHANNELS 3 Xrotation Zrotation Yrotation
		JOINT chest
		{
			OFFSET 0.000000 8.438565 -0.680529 
			CHANNELS 3 Xrotation Zrotation Yrotation
			JOINT neck
			{
				OFFSET 0.000000 10.207942 -0.272212 
				CHANNELS 3 Xrotation Zrotation Yrotation
				JOINT head
				{
					OFFSET 0.000000 3.130431 0.000000 
					CHANNELS 3 Xrotation Zrotation Yrotation
					End Site
					{
						OFFSET 0.000000 3.130435 0.000000 
					}
				}
			}
			JOINT lCollar
			{
				OFFSET 3.470700 6.669187 -0.816635 
				CHANNELS 3 Yrotation Zrotation Xrotation
				JOINT lShldr
				{
					OFFSET 3.198488 0.000000 0.000000 
					CHANNELS 3 Zrotation Yrotation Xrotation
					JOINT lForeArm
					{
						OFFSET 10.139888 0.000000 0.000000 
						CHANNELS 3 Yrotation Zrotation Xrotation
						JOINT lHand
						{
							OFFSET 8.370511 0.000000 0.000000 
							CHANNELS 3 Zrotation Yrotation Xrotation
							End Site
							{
								OFFSET 4.083176 0.000000 0.000000 
							}
						}
					}
				}
			}
			JOINT rCollar
			{
				OFFSET -3.470700 6.669187 -0.816635 
				CHANNELS 3 Yrotation Zrotation Xrotation
				JOINT rShldr
				{
					OFFSET -3.198488 0.000000 0.000000 
					CHANNELS 3 Zrotation Yrotation Xrotation
					JOINT rForeArm
					{
						OFFSET -10.139888 0.000000 0.000000 
						CHANNELS 3 Yrotation Zrotation Xrotation
						JOINT rHand
						{
							OFFSET -8.370511 0.000000 0.000000 
							CHANNELS 3 Zrotation Yrotation Xrotation
							End Site
							{
								OFFSET -4.083176 0.000000 0.000000 
							}
						}
					}
				}
			}
		}
	}
	JOINT lThigh
	{
		OFFSET 5.308129 -1.633274 1.361059 
		CHANNELS 3 Xrotation Zrotation Yrotation
		JOINT lShin
		{
			OFFSET -2.041588 -20.007561 0.000000 
			CHANNELS 3 Xrotation Zrotation Yrotation
			JOINT lFoot
			{
				OFFSET 0.000000 -19.190928 -1.224953 
				CHANNELS 3 Xrotation Yrotation Zrotation
				End Site
				{
					OFFSET 0.000000 -2.449906 4.627600 
				}
			}
		}
	}
	JOINT rThigh
	{
		OFFSET -5.308129 -1.633274 1.361059 
		CHANNELS 3 Xrotation Zrotation Yrotation
		JOINT rShin
		{
			OFFSET 2.041588 -20.007561 0.000000 
			CHANNELS 3 Xrotation Zrotation Yrotation
			JOINT rFoot
			{
				OFFSET 0.000000 -19.190928 -1.224953 
				CHANNELS 3 Xrotation Yrotation Zrotation
				End Site
				{
					OFFSET 0.000000 -2.449906 4.627600 
				}
			}
		}
	}
}
MOTION
Frames: 14
Frame Time: 0.033333
-65.276581 52.898129 79.639420 8.466797 5.214844 -27.890627 14.752497 -3.848952 -26.852146 -22.812500 16.767580 7.294923 51.063168 8.107644 2.471410 -34.335941 -3.896484 0.986328 2.000000 -2.000000 0.000000 -79.980469 -0.742188 2.265625 -67.106995 -1.302851 -2.600338 55.300743 13.069794 24.334471 -2.000000 2.000000 0.000000 90.361328 -36.191406 -8.681641 92.705505 0.088981 -3.091469 -20.645086 -16.527832 5.523703 -2.614680 2.056894 14.574217 5.365516 -5.790105 -0.555867 -2.984983 3.810691 4.438499 -29.276350 -12.828949 -45.351254 27.607082 4.511569 2.300631 9.855278 13.042428 -18.115391 
-66.637177 52.658604 80.944702 10.615235 6.738282 -27.030104 7.968105 -7.692490 -26.148365 -20.712891 18.046875 7.737401 51.063168 8.107644 2.471410 -31.826172 -3.398438 -1.602142 2.000000 -2.000000 0.000000 -80.410156 1.357422 7.138672 -67.106979 -1.312600 -2.599771 55.210854 13.876985 23.868044 -2.000000 2.000000 0.000000 91.572266 -36.191402 -10.917969 95.694618 -0.036069 -3.128015 -18.568239 -17.278923 5.865475 -4.234674 2.515630 13.379503 8.365294 -5.224120 -0.965867 -5.956528 4.172521 3.273779 -28.974087 -11.854333 -44.927902 22.668612 4.724960 2.058830 8.284286 12.858719 -18.473425 
-67.734993 52.316578 81.842323 11.503906 7.392579 -26.795618 5.256906 -10.490230 -24.123108 -19.960938 18.173830 7.988281 51.063168 8.107644 2.471410 -34.394539 -2.207031 -3.613281 2.000000 -2.000000 0.000000 -78.281250 1.552734 11.533470 -70.613693 -1.050503 -2.634574 56.547707 14.441075 23.032509 -2.000000 2.000000 0.000000 92.421875 -33.427734 -13.442879 98.859222 -0.171433 -3.155378 -16.014973 -18.681061 6.546259 -5.804766 3.265818 12.666593 13.686039 -5.096968 -1.585103 -9.448027 4.227293 2.630731 -28.503445 -10.941893 -43.777554 18.069258 4.903599 1.690916 5.449136 11.856195 -18.498665 
-68.604370 51.874775 82.226395 10.800781 7.060547 -26.942158 7.877680 -11.514782 -21.273222 -21.142578 17.031250 7.288017 51.063168 8.107644 2.471410 -42.041016 -0.751953 -5.156251 2.000000 -2.000000 0.000000 -75.781250 2.705078 13.096166 -73.783112 -1.120306 -2.826269 57.420860 14.239902 23.385918 -2.000000 2.000000 0.000000 92.705078 -28.369141 -15.326905 101.140167 -0.452870 -3.025015 -14.587536 -19.450762 7.352646 -6.409899 4.348850 12.086187 18.600452 -5.033085 -1.811440 -9.947026 4.489889 2.090082 -27.126482 -9.945830 -43.089096 14.192709 5.007232 1.384234 0.511647 12.242035 -18.297026 
-69.271957 51.505386 82.607338 9.003906 6.250000 -27.303625 13.210117 -12.202194 -17.572773 -23.447266 15.058595 6.416016 51.063168 8.107644 2.471410 -52.333981 0.468750 -7.060467 2.000000 -2.000000 0.000000 -75.244141 7.675781 12.441405 -75.532608 -1.045136 -2.879521 57.065941 13.801786 23.580740 -2.000000 2.000000 0.000000 90.781250 -24.335938 -15.072382 102.370056 -0.522243 -3.009472 -14.747963 -20.156275 9.361366 -6.473270 6.296647 14.180372 24.789364 -4.834475 -2.293456 -7.274549 1.985361 6.313582 -25.358913 -10.014009 -41.676014 16.663736 5.007939 1.111857 0.185207 10.966143 -17.743896 
-70.086601 51.298485 82.920815 6.523438 4.882813 -28.085104 20.134710 -12.883029 -13.975139 -25.898438 12.851563 5.625000 51.063168 8.107644 2.471410 -64.150391 0.556641 -9.501953 2.000000 -2.000000 0.000000 -76.269531 14.248047 10.263673 -76.939468 -0.987769 -2.902405 55.692039 13.753734 24.135489 -2.000000 2.000000 0.000000 86.201172 -21.962893 -12.786856 102.882248 -0.552221 -3.167561 -15.616425 -21.253342 12.023988 -10.035146 9.827027 16.339010 34.622635 -4.386443 -3.066568 8.254285 1.709558 12.283327 -21.345320 -8.685987 -40.680843 14.543086 4.997085 1.236926 2.817430 9.543856 -17.471550 
-70.904839 51.099579 83.256172 3.867188 3.505860 -28.934950 27.503784 -13.645834 -10.839882 -28.447268 11.152345 5.029297 51.063168 8.107644 2.471410 -75.566406 -0.742188 -11.855597 2.000000 -2.000000 0.000000 -78.535156 21.406250 7.601220 -78.172836 -0.748843 -2.661903 54.743568 13.541492 24.572523 -2.000000 2.000000 0.000000 82.412109 -19.472656 -12.382813 103.590164 -0.601365 -2.994492 -15.888800 -22.527277 14.204215 -12.457911 12.796682 17.672203 39.003128 -4.031640 -3.304652 33.336018 2.939815 16.714464 -16.687698 -7.058250 -39.836914 11.907886 5.064582 1.200947 5.731887 8.589533 -17.426985 
-71.564201 52.078564 83.477188 1.230469 2.089844 -30.009764 37.099716 -14.019489 -8.340080 -31.503906 10.322266 5.167766 51.063168 8.107644 2.471410 -87.666016 -3.955078 -12.968751 2.000000 -2.000000 0.000000 -81.728516 25.419922 3.881145 -79.754265 -0.865543 -2.987720 54.169231 13.210789 25.007328 -2.000000 2.000000 0.000000 79.335938 -16.611326 -16.164900 104.990707 -0.680653 -3.145633 -14.328274 -24.760206 14.490263 -19.623501 14.240820 17.286186 48.170567 -3.831327 -3.889482 40.688263 6.593548 17.525791 -13.367184 -6.381187 -39.942963 11.897316 5.065168 1.190454 5.952564 8.306721 -18.911543 
-71.941666 51.959736 83.612701 -0.537109 1.220705 -31.308344 48.046944 -14.257955 -5.981598 -34.726563 10.166015 5.664063 51.063168 8.107644 2.471410 -99.521484 -7.871093 -12.598995 2.000000 -2.000000 0.000000 -84.580078 27.001953 2.045449 -81.848419 -0.444217 -2.806820 54.437401 14.035187 24.509069 -2.000000 2.000000 0.000000 76.669922 -13.662109 -22.080078 106.743111 -0.935098 -2.974682 -11.706609 -27.607889 14.013845 -28.834929 15.231541 16.182093 58.898682 -2.846754 -4.505666 41.645309 9.439381 13.522171 -12.087713 -6.457191 -40.354637 14.731781 4.988499 1.251275 5.226800 8.569281 -20.876375 
-72.521408 51.726280 84.023720 -1.943359 0.507813 -33.417843 55.003448 -15.439484 -3.930154 -36.328125 10.166015 6.075943 51.063168 8.107644 2.471410 -107.431641 -11.376952 -11.865232 2.000000 -2.000000 0.000000 -86.474609 29.501953 1.166920 -83.958916 -0.358733 -2.850892 55.233101 14.758074 23.228750 -2.000000 2.000000 0.000000 73.066406 -10.625001 -26.495939 106.566628 -0.936002 -3.297251 -10.676084 -29.725727 14.128977 -38.294209 15.581060 14.861934 69.240097 -2.164094 -4.870236 38.694786 10.744731 7.715808 -11.249266 -6.891574 -39.862091 18.248604 4.914469 1.706915 3.551464 8.336077 -22.643871 
-73.376320 51.707916 84.784576 -3.173828 0.000000 -36.220703 56.791584 -17.796934 -1.347237 -35.439453 10.166015 6.757813 51.063168 8.107644 2.471410 -109.091797 -13.486327 -12.160480 2.000000 -2.000000 0.000000 -87.431641 32.382813 0.093121 -85.707809 -0.292183 -2.884088 55.716980 15.319440 22.559731 -2.000000 2.000000 0.000000 65.908203 -4.472656 -28.828890 102.859734 -1.142252 -3.113779 -13.809598 -30.036856 16.898169 -46.459934 15.504840 13.232498 76.950714 -1.667705 -5.037157 33.668716 11.797040 2.705172 -10.653933 -7.361768 -37.453228 22.115343 4.745262 2.016945 1.107644 8.975102 -22.583818 
-74.490448 51.722729 85.674210 -4.052734 -0.361328 -39.199284 56.069664 -20.743786 1.468155 -33.291019 10.166015 7.490235 51.063168 8.107644 2.471410 -105.849609 -13.876951 -13.469140 2.000000 -2.000000 0.000000 -89.511719 33.398434 -3.505859 -86.248421 -0.436010 -3.002859 55.945263 15.213271 23.070036 -2.000000 2.000000 0.000000 56.962891 2.802734 -31.181641 97.054794 -0.927041 -2.944882 -18.584358 -29.518028 20.369707 -51.185738 15.602373 12.722759 80.499359 -1.541385 -5.083385 30.573799 12.720818 -0.382873 -9.403936 -7.234998 -33.697834 23.889759 4.676626 1.682942 -0.392486 9.227547 -21.796396 
-75.729561 52.132050 86.846062 -4.404297 -0.537109 -41.816544 52.904324 -23.080107 4.243461 -30.791016 10.312501 8.282999 51.063168 8.107644 2.471410 -98.808594 -12.568358 -15.166017 2.000000 -2.000000 0.000000 -92.138672 33.613285 -8.598108 -86.231651 -0.080104 -2.769274 55.799946 15.030152 23.585443 -2.000000 2.000000 0.000000 51.367184 7.968750 -32.695309 90.561707 -0.642620 -2.957766 -22.449434 -28.161268 22.525536 -50.888763 15.859753 14.006097 76.960670 -1.695800 -5.049778 27.257944 12.437845 0.205045 -7.353270 -6.522444 -31.532330 23.359888 4.793244 1.652038 -0.768964 9.772770 -21.124460 
-77.060097 52.613918 88.268578 -3.876953 -0.175781 -43.251957 48.171494 -24.138391 6.205820 -28.818361 10.810547 8.642580 51.063168 8.107644 2.471410 -89.228516 -9.980468 -16.074223 2.000000 -2.000000 0.000000 -93.681641 33.466801 -11.801253 -86.407166 -0.060040 -2.760660 55.634674 15.227417 23.939537 -2.000000 2.000000 0.000000 52.666019 10.693359 -31.345842 83.046204 0.164721 -3.047960 -24.625057 -26.404987 22.407059 -46.145023 16.000648 16.367170 67.299217 -2.183003 -4.657766 22.383657 10.685916 2.564283 -4.560057 -5.512082 -30.799276 20.188580 4.835776 1.689644 0.092551 10.288309 -21.664631 
